<svg width="40.000000" height="40.000000" viewBox="0 0 40 40" fill="none" xmlns="http://www.w3.org/2000/svg" xmlns:xlink="http://www.w3.org/1999/xlink">
	<desc>
			Created with Pixso.
	</desc>
	<defs>
		<clipPath id="clip1_3105">
			<rect id="box 1" width="40.000000" height="40.000000" fill="white" fill-opacity="0"/>
		</clipPath>
	</defs>
	<rect id="box 1" width="40.000000" height="40.000000" fill="#FFFFFF" fill-opacity="0"/>
	<g clip-path="url(#clip1_3105)">
		<path id="Vector" d="M38.41 8.82L20.25 0.05C20.09 -0.03 19.9 -0.03 19.74 0.05L1.58 8.82C1.38 8.92 1.25 9.12 1.25 9.35L1.25 30.64C1.25 30.87 1.38 31.07 1.58 31.17L19.74 39.94C19.82 39.98 19.91 39.99 20 39.99C20.08 39.99 20.17 39.98 20.25 39.94L38.41 31.17C38.61 31.07 38.74 30.87 38.74 30.64L38.74 9.35C38.74 9.12 38.61 8.92 38.41 8.82ZM20 1.23L36.81 9.35L31.93 11.7C31.9 11.68 31.87 11.66 31.84 11.64L15.14 3.58L20 1.23ZM13.81 4.24L30.6 12.34L27.16 14L10.38 5.9L13.81 4.24ZM31 13.46L31 19.59L27.78 21.14L27.78 15.01L31 13.46ZM37.57 30.27L20.58 38.48L20.58 18.48L24.63 16.53C24.92 16.39 25.05 16.04 24.91 15.74C24.77 15.45 24.42 15.33 24.12 15.47L20 17.47L18.37 16.68C18.08 16.54 17.73 16.66 17.59 16.95C17.45 17.25 17.57 17.6 17.86 17.74L19.41 18.48L19.41 38.48L2.42 30.27L2.42 10.28L15.36 16.53C15.44 16.57 15.53 16.59 15.61 16.59C15.83 16.59 16.04 16.46 16.14 16.25C16.28 15.96 16.16 15.61 15.87 15.47L3.18 9.35L9 6.54L26.6 15.04C26.61 15.04 26.61 15.04 26.61 15.05L26.61 22.08C26.61 22.28 26.71 22.47 26.89 22.57C26.98 22.63 27.09 22.66 27.2 22.66C27.28 22.66 27.37 22.64 27.45 22.6L31.84 20.49C32.04 20.39 32.17 20.19 32.17 19.96L32.17 12.89L37.57 10.28L37.57 30.27Z" fill="#688800" fill-opacity="1.000000" fill-rule="nonzero"/>
		<path id="Vector" d="M7.25 28L4.59 26.71C4.3 26.57 3.95 26.7 3.81 26.99C3.67 27.28 3.79 27.63 4.08 27.77L6.75 29.06C6.83 29.1 6.91 29.12 7 29.12C7.22 29.12 7.43 28.99 7.53 28.78C7.67 28.49 7.55 28.14 7.25 28Z" fill="#688800" fill-opacity="1.000000" fill-rule="nonzero"/>
		<path id="Vector" d="M9.71 26.4L4.59 23.94C4.3 23.79 3.95 23.92 3.81 24.21C3.67 24.5 3.79 24.85 4.08 24.99L9.2 27.46C9.28 27.5 9.37 27.52 9.45 27.52C9.67 27.52 9.88 27.4 9.98 27.19C10.12 26.9 10 26.54 9.71 26.4Z" fill="#688800" fill-opacity="1.000000" fill-rule="nonzero"/>
	</g>
</svg>
