<svg width="40.000000" height="40.000000" viewBox="0 0 40 40" fill="none" xmlns="http://www.w3.org/2000/svg" xmlns:xlink="http://www.w3.org/1999/xlink">
	<desc>
			Created with Pixso.
	</desc>
	<defs>
		<clipPath id="clip1_3136">
			<rect id="cash" width="40.000000" height="40.000000" fill="white" fill-opacity="0"/>
		</clipPath>
	</defs>
	<rect id="cash" width="40.000000" height="40.000000" fill="#FFFFFF" fill-opacity="0"/>
	<g clip-path="url(#clip1_3136)">
		<path id="Vector" d="M37.4 1.28L34.83 1.28C34.51 1.28 34.25 1.54 34.25 1.87C34.25 2.19 34.51 2.45 34.83 2.45L37.4 2.45C37.55 2.45 37.67 2.57 37.67 2.72L37.67 18.48C37.67 18.63 37.55 18.76 37.4 18.76L13.38 18.76L13.38 17.58L29.23 17.58C29.56 17.58 29.82 17.32 29.82 16.99C29.82 16.67 29.56 16.41 29.23 16.41L13.38 16.41L13.38 13.92C13.38 12.34 12.1 11.06 10.52 11.06C8.95 11.06 7.67 12.34 7.67 13.92L7.67 16.41L6.31 16.41C6.1 15.61 5.47 14.97 4.67 14.76L4.67 10.59C4.67 10.27 4.41 10.01 4.08 10.01C3.76 10.01 3.49 10.27 3.49 10.59L3.49 15.28C3.49 15.6 3.76 15.86 4.08 15.86C4.71 15.86 5.21 16.37 5.21 16.99C5.21 17.32 5.48 17.58 5.8 17.58L7.67 17.58L7.67 18.76L2.59 18.76C2.44 18.76 2.32 18.63 2.32 18.48L2.32 2.72C2.32 2.57 2.44 2.45 2.59 2.45L10.7 2.45L10.7 3.63L5.8 3.63C5.48 3.63 5.21 3.89 5.21 4.21C5.21 4.84 4.71 5.35 4.08 5.35C3.76 5.35 3.49 5.61 3.49 5.93L3.49 8.09C3.49 8.41 3.76 8.68 4.08 8.68C4.41 8.68 4.67 8.41 4.67 8.09L4.67 6.44C5.47 6.23 6.1 5.6 6.31 4.8L10.7 4.8L10.7 5.03C10.7 6.43 11.85 7.58 13.26 7.58C13.91 7.58 14.51 7.33 14.96 6.93C15.39 7.71 16.23 8.24 17.19 8.24C18.15 8.24 18.99 7.71 19.42 6.93C19.88 7.33 20.47 7.58 21.12 7.58C22.13 7.58 22.99 7 23.41 6.16C23.86 6.54 24.43 6.77 25.06 6.77C26.27 6.77 27.28 5.93 27.54 4.8L33.68 4.8C33.89 5.6 34.52 6.23 35.32 6.44L35.32 14.76C34.52 14.97 33.89 15.61 33.68 16.41L31.73 16.41C31.41 16.41 31.15 16.67 31.15 16.99C31.15 17.32 31.41 17.58 31.73 17.58L34.19 17.58C34.51 17.58 34.78 17.32 34.78 16.99C34.78 16.37 35.28 15.86 35.91 15.86C36.23 15.86 36.5 15.6 36.5 15.28L36.5 5.93C36.5 5.61 36.23 5.35 35.91 5.35C35.28 5.35 34.78 4.84 34.78 4.21C34.78 3.89 34.51 3.63 34.19 3.63L27.61 3.63L27.61 2.45L32.33 2.45C32.65 2.45 32.92 2.19 32.92 1.87C32.92 1.54 32.65 1.28 32.33 1.28L27.5 1.28C27.24 0.53 26.53 0 25.69 0L24.43 0C23.91 0 23.44 0.2 23.09 0.54C22.75 0.2 22.28 0 21.76 0L20.49 0C19.97 0 19.5 0.2 19.16 0.54C18.81 0.2 18.34 0 17.82 0L16.56 0C16.04 0 15.57 0.2 15.22 0.54C14.88 0.2 14.41 0 13.89 0L12.62 0C11.79 0 11.07 0.53 10.81 1.28L2.59 1.28C1.79 1.28 1.15 1.93 1.15 2.72L1.15 18.48C1.15 19.28 1.79 19.93 2.59 19.93L7.67 19.93L7.67 24.28C7.67 25.54 8.16 26.71 9.04 27.6L11.56 30.11L11.56 39.41C11.56 39.73 11.82 40 12.14 40C12.47 40 12.73 39.73 12.73 39.41L12.73 29.87C12.73 29.71 12.67 29.56 12.56 29.45L9.87 26.77C9.21 26.1 8.84 25.22 8.84 24.28L8.84 13.92C8.84 12.99 9.6 12.24 10.52 12.24C11.45 12.24 12.21 12.99 12.21 13.92L12.21 19.34C12.21 19.67 12.47 19.93 12.79 19.93C15.43 19.93 17.58 22.08 17.58 24.72L17.58 25.09C17.58 25.42 17.84 25.68 18.17 25.68C18.49 25.68 18.75 25.42 18.75 25.09L18.75 24.72C18.75 22.76 17.8 21.02 16.34 19.93L28.65 19.93L28.65 20.23C28.65 21.27 28.32 22.27 27.72 23.12L26.03 25.48C25.96 25.58 25.92 25.7 25.92 25.82L25.92 39.41C25.92 39.73 26.18 40 26.51 40C26.83 40 27.09 39.73 27.09 39.41L27.09 26.01L28.67 23.8C29.42 22.76 29.82 21.52 29.82 20.23L29.82 19.93L37.4 19.93C38.2 19.93 38.84 19.28 38.84 18.48L38.84 2.72C38.84 1.93 38.2 1.28 37.4 1.28ZM24.43 1.17L25.69 1.17C26.1 1.17 26.44 1.5 26.44 1.92L26.44 4.21C26.44 4.97 25.82 5.59 25.06 5.59C24.3 5.59 23.68 4.97 23.68 4.21L23.68 1.92C23.68 1.5 24.01 1.17 24.43 1.17ZM20.49 1.17L21.76 1.17C22.17 1.17 22.51 1.5 22.51 1.92L22.51 5.03C22.51 5.79 21.89 6.41 21.12 6.41C20.36 6.41 19.74 5.79 19.74 5.03L19.74 1.92C19.74 1.5 20.08 1.17 20.49 1.17ZM16.56 1.17L17.82 1.17C18.24 1.17 18.57 1.5 18.57 1.92L18.57 5.69C18.57 6.45 17.95 7.07 17.19 7.07L17.19 7.07C16.43 7.07 15.81 6.45 15.81 5.69L15.81 1.92C15.81 1.5 16.15 1.17 16.56 1.17ZM11.88 1.92C11.88 1.5 12.21 1.17 12.62 1.17L13.89 1.17C14.3 1.17 14.64 1.5 14.64 1.92L14.64 5.03C14.64 5.79 14.02 6.41 13.26 6.41C12.5 6.41 11.88 5.79 11.88 5.03L11.88 1.92L11.88 1.92Z" fill="#688800" fill-opacity="1.000000" fill-rule="nonzero"/>
		<path id="Vector" d="M15.57 8.95C15.25 8.9 14.95 9.12 14.9 9.44C14.86 9.7 14.84 9.97 14.84 10.23C14.84 13.08 17.15 15.4 20 15.4C22.85 15.4 25.16 13.08 25.16 10.23C25.16 9.75 25.1 9.27 24.96 8.8C24.87 8.49 24.55 8.31 24.23 8.4C23.92 8.49 23.74 8.82 23.83 9.13C23.94 9.49 23.99 9.86 23.99 10.23C23.99 12.43 22.2 14.22 20 14.22C17.8 14.22 16.01 12.43 16.01 10.23C16.01 10.03 16.03 9.82 16.06 9.62C16.11 9.3 15.89 9 15.57 8.95Z" fill="#688800" fill-opacity="1.000000" fill-rule="nonzero"/>
	</g>
</svg>
