<svg width="40.000000" height="40.000000" viewBox="0 0 40 40" fill="none" xmlns="http://www.w3.org/2000/svg" xmlns:xlink="http://www.w3.org/1999/xlink">
	<desc>
			Created with Pixso.
	</desc>
	<defs>
		<clipPath id="clip1_3162">
			<rect id="coins" width="40.000000" height="40.000000" fill="white" fill-opacity="0"/>
		</clipPath>
	</defs>
	<rect id="coins" width="40.000000" height="40.000000" fill="#FFFFFF" fill-opacity="0"/>
	<g clip-path="url(#clip1_3162)">
		<path id="Vector" d="M26.81 8.68L25.68 8.68C25.88 8.33 26 7.93 26 7.5L26 3.91C26 2.6 24.93 1.54 23.62 1.54L2.37 1.54C1.06 1.54 0 2.6 0 3.91L0 7.5C0 8.81 1.06 9.88 2.37 9.88L3.5 9.88C3.3 10.22 3.18 10.62 3.18 11.05L3.18 14.65C3.18 15.08 3.3 15.48 3.5 15.82L2.37 15.82C1.06 15.82 0 16.89 0 18.2L0 21.79C0 22.83 0.66 23.71 1.59 24.03C1.34 24.41 1.19 24.86 1.19 25.34L1.19 28.94C1.19 29.42 1.34 29.87 1.59 30.25C0.66 30.57 0 31.45 0 32.49L0 36.08C0 37.39 1.06 38.45 2.37 38.45L20.6 38.45C20.93 38.45 21.19 38.19 21.19 37.86C21.19 37.52 20.93 37.26 20.6 37.26L2.37 37.26C1.72 37.26 1.19 36.73 1.19 36.08L1.19 32.49C1.19 31.84 1.72 31.31 2.37 31.31L3.56 31.31L6.74 31.31L13.93 31.31C14.26 31.31 14.53 31.04 14.53 30.71C14.53 30.38 14.26 30.11 13.93 30.11L6.74 30.11L3.56 30.11C2.91 30.11 2.39 29.58 2.39 28.94L2.39 25.34C2.39 24.69 2.91 24.16 3.56 24.16L12.84 24.16C13.17 24.16 13.44 23.9 13.44 23.57C13.44 23.24 13.17 22.97 12.84 22.97L2.37 22.97C1.72 22.97 1.19 22.44 1.19 21.79L1.19 18.2C1.19 17.55 1.72 17.02 2.37 17.02L5.56 17.02L10.34 17.02L16.23 17.02C16.56 17.02 16.82 16.75 16.82 16.42C16.82 16.09 16.56 15.82 16.23 15.82L10.34 15.82L5.56 15.82C4.91 15.82 4.38 15.3 4.38 14.65L4.38 11.05C4.38 10.4 4.91 9.88 5.56 9.88L23.62 9.88L26.81 9.88C27.46 9.88 27.99 10.4 27.99 11.05L27.99 11.5C27.99 11.83 28.26 12.1 28.59 12.1C28.92 12.1 29.19 11.83 29.19 11.5L29.19 11.05C29.19 9.74 28.12 8.68 26.81 8.68ZM24.8 7.5C24.8 8.15 24.27 8.68 23.62 8.68L5.56 8.68L2.37 8.68C1.72 8.68 1.19 8.15 1.19 7.5L1.19 3.91C1.19 3.26 1.72 2.73 2.37 2.73L23.62 2.73C24.27 2.73 24.8 3.26 24.8 3.91L24.8 7.5Z" fill="#688800" fill-opacity="1.000000" fill-rule="nonzero"/>
		<path id="Vector" d="M34.08 14.55C33.81 14.37 33.44 14.45 33.26 14.73C33.08 15 33.15 15.37 33.43 15.55C36.79 17.75 38.8 21.45 38.8 25.45C38.8 31.96 33.5 37.26 26.99 37.26C20.48 37.26 15.19 31.96 15.19 25.45C15.19 18.94 20.48 13.65 26.99 13.65C28.7 13.65 30.35 14 31.89 14.71C32.19 14.85 32.55 14.71 32.69 14.41C32.82 14.11 32.69 13.76 32.39 13.62C30.69 12.85 28.88 12.45 26.99 12.45C19.83 12.45 13.99 18.28 13.99 25.45C13.99 32.62 19.83 38.45 26.99 38.45C34.16 38.45 40 32.62 40 25.45C40 21.04 37.79 16.97 34.08 14.55Z" fill="#688800" fill-opacity="1.000000" fill-rule="nonzero"/>
		<path id="Vector" d="M33.62 18.83C31.85 17.06 29.5 16.08 26.99 16.08C24.49 16.08 22.14 17.06 20.37 18.83C18 21.19 17.08 24.67 17.95 27.9C18.04 28.22 18.36 28.41 18.68 28.33C19 28.24 19.19 27.91 19.1 27.59C18.34 24.77 19.15 21.74 21.21 19.67C22.76 18.13 24.81 17.28 26.99 17.28C29.18 17.28 31.23 18.13 32.77 19.67C35.96 22.86 35.96 28.05 32.77 31.23C29.59 34.42 24.4 34.42 21.21 31.23C20.64 30.66 20.16 30.01 19.78 29.3C19.63 29.01 19.26 28.9 18.97 29.06C18.68 29.21 18.57 29.58 18.73 29.87C19.16 30.68 19.71 31.42 20.37 32.08C22.2 33.9 24.59 34.82 26.99 34.82C29.39 34.82 31.79 33.9 33.62 32.08C37.27 28.42 37.27 22.48 33.62 18.83Z" fill="#688800" fill-opacity="1.000000" fill-rule="nonzero"/>
		<path id="Vector" d="M27.59 24.9L27.59 21.61C28.46 21.81 29.1 22.45 29.1 23.2C29.1 23.53 29.37 23.8 29.7 23.8C30.03 23.8 30.3 23.53 30.3 23.2C30.3 21.8 29.13 20.64 27.59 20.39L27.59 20.04C27.59 19.71 27.32 19.45 26.99 19.45C26.66 19.45 26.4 19.71 26.4 20.04L26.4 20.39C24.86 20.64 23.69 21.8 23.69 23.2C23.69 24.6 24.86 25.76 26.4 26L26.4 29.29C25.52 29.09 24.89 28.46 24.89 27.71C24.89 27.38 24.62 27.11 24.29 27.11C23.96 27.11 23.69 27.38 23.69 27.71C23.69 29.1 24.86 30.27 26.4 30.51L26.4 30.86C26.4 31.19 26.66 31.46 26.99 31.46C27.32 31.46 27.59 31.19 27.59 30.86L27.59 30.51C29.13 30.27 30.3 29.1 30.3 27.71C30.3 26.31 29.13 25.15 27.59 24.9ZM26.4 24.79C25.52 24.58 24.89 23.95 24.89 23.2C24.89 22.45 25.52 21.81 26.4 21.61L26.4 24.79ZM27.59 29.29L27.59 26.12C28.46 26.32 29.1 26.96 29.1 27.71C29.1 28.46 28.46 29.09 27.59 29.29Z" fill="#688800" fill-opacity="1.000000" fill-rule="nonzero"/>
	</g>
</svg>
