<svg width="40.000000" height="40.000000" viewBox="0 0 40 40" fill="none" xmlns="http://www.w3.org/2000/svg" xmlns:xlink="http://www.w3.org/1999/xlink">
	<desc>
			Created with Pixso.
	</desc>
	<defs>
		<clipPath id="clip1_3142">
			<rect id="credit-card" width="40.000000" height="40.000000" fill="white" fill-opacity="0"/>
		</clipPath>
	</defs>
	<rect id="credit-card" width="40.000000" height="40.000000" fill="#FFFFFF" fill-opacity="0"/>
	<g clip-path="url(#clip1_3142)">
		<path id="Vector" d="M38.16 14.2L34.23 14.2L32.24 6.4C31.99 5.42 30.99 4.82 30.01 5.07L25.47 6.23C25.17 6.31 24.98 6.62 25.06 6.92C25.14 7.23 25.45 7.41 25.75 7.34L30.29 6.18C30.66 6.09 31.04 6.31 31.13 6.68L31.35 7.54L1.38 15.19L1.16 14.32C1.11 14.14 1.14 13.96 1.24 13.8C1.33 13.64 1.48 13.53 1.66 13.48L22.27 8.22C22.58 8.15 22.76 7.83 22.69 7.53C22.61 7.22 22.3 7.04 21.99 7.12L1.38 12.37C0.4 12.62 -0.2 13.62 0.05 14.6L4.28 31.18C4.49 32.01 5.24 32.56 6.06 32.56C6.21 32.56 6.36 32.54 6.51 32.51L6.78 32.44L6.78 33.14C6.78 34.15 7.6 34.97 8.62 34.97L38.16 34.97C39.17 34.97 40 34.15 40 33.14L40 16.03C40 15.02 39.17 14.2 38.16 14.2ZM6.78 31.26L6.23 31.4C5.86 31.49 5.48 31.27 5.39 30.9L2.8 20.75L6.78 19.74L6.78 31.26ZM6.78 16.03L6.78 18.56L2.52 19.64L1.66 16.29L7.19 14.88C6.93 15.2 6.78 15.6 6.78 16.03ZM33.05 14.2L28.5 14.2L32.77 13.11L33.05 14.2ZM31.63 8.65L32.49 12L23.88 14.2L9.88 14.2L31.63 8.65ZM38.16 33.83L8.62 33.83C8.23 33.83 7.92 33.52 7.92 33.14L7.92 31.7L7.92 16.03C7.92 15.65 8.23 15.34 8.62 15.34L38.16 15.34C38.54 15.34 38.85 15.65 38.85 16.03L38.85 33.14C38.85 33.52 38.54 33.83 38.16 33.83Z" fill="#688800" fill-opacity="1.000000" fill-rule="nonzero"/>
		<path id="Vector" d="M22.76 28.27L10.3 28.27C9.99 28.27 9.73 28.52 9.73 28.84C9.73 29.15 9.99 29.41 10.3 29.41L22.76 29.41C23.07 29.41 23.33 29.15 23.33 28.84C23.33 28.52 23.07 28.27 22.76 28.27Z" fill="#688800" fill-opacity="1.000000" fill-rule="nonzero"/>
		<path id="Vector" d="M32.28 18.22C31.46 18.22 30.7 18.48 30.08 18.93C29.44 18.47 28.68 18.22 27.88 18.22C25.8 18.22 24.12 19.91 24.12 21.98C24.12 24.06 25.8 25.74 27.88 25.74C28.68 25.74 29.44 25.49 30.08 25.03C30.7 25.48 31.46 25.74 32.28 25.74C34.36 25.74 36.04 24.06 36.04 21.98C36.04 19.91 34.36 18.22 32.28 18.22ZM28.52 22.16C28.52 22.17 28.52 22.19 28.53 22.2C28.53 22.25 28.53 22.3 28.54 22.35C28.54 22.36 28.54 22.37 28.54 22.38C28.61 23.05 28.85 23.68 29.25 24.21C28.84 24.46 28.37 24.6 27.88 24.6C26.43 24.6 25.26 23.42 25.26 21.98C25.26 20.54 26.43 19.36 27.88 19.36C28.37 19.36 28.84 19.5 29.25 19.75C28.85 20.29 28.61 20.91 28.54 21.58C28.54 21.59 28.54 21.6 28.54 21.61C28.53 21.66 28.53 21.71 28.53 21.76C28.52 21.77 28.52 21.79 28.52 21.8C28.52 21.86 28.52 21.92 28.52 21.98C28.52 22.04 28.52 22.1 28.52 22.16ZM32.28 24.6C31.57 24.6 30.92 24.31 30.44 23.85C30.43 23.84 30.42 23.83 30.41 23.82C30.39 23.79 30.37 23.77 30.35 23.75C30.34 23.74 30.34 23.74 30.33 23.73C30.31 23.7 30.28 23.67 30.26 23.65C30.26 23.65 30.26 23.65 30.26 23.65C29.89 23.19 29.66 22.61 29.66 21.98C29.66 21.35 29.89 20.77 30.26 20.32C30.26 20.32 30.26 20.32 30.26 20.31C30.28 20.29 30.31 20.26 30.33 20.23C30.34 20.22 30.34 20.22 30.35 20.21C30.37 20.19 30.39 20.17 30.41 20.14C30.42 20.13 30.43 20.12 30.44 20.12C30.92 19.65 31.57 19.36 32.28 19.36C33.73 19.36 34.9 20.54 34.9 21.98C34.9 23.42 33.73 24.6 32.28 24.6Z" fill="#688800" fill-opacity="1.000000" fill-rule="nonzero"/>
		<path id="Vector" d="M14.38 18.59L11.87 18.59C10.69 18.59 9.73 19.55 9.73 20.73L9.73 23.23C9.73 24.41 10.69 25.37 11.87 25.37L14.38 25.37C15.55 25.37 16.51 24.41 16.51 23.23L16.51 20.73C16.51 19.55 15.55 18.59 14.38 18.59ZM15.37 22.29L14.15 22.29C13.84 22.29 13.58 22.54 13.58 22.86C13.58 23.17 13.84 23.43 14.15 23.43L15.35 23.43C15.26 23.88 14.86 24.23 14.38 24.23L11.87 24.23C11.39 24.23 10.99 23.88 10.89 23.43L12.09 23.43C12.41 23.43 12.66 23.17 12.66 22.86C12.66 22.54 12.41 22.29 12.09 22.29L10.87 22.29L10.87 21.79L12.09 21.79C12.41 21.79 12.66 21.54 12.66 21.22C12.66 20.9 12.41 20.65 12.09 20.65L10.88 20.65C10.92 20.14 11.35 19.73 11.87 19.73L14.38 19.73C14.9 19.73 15.33 20.14 15.37 20.65L14.15 20.65C13.84 20.65 13.58 20.9 13.58 21.22C13.58 21.54 13.84 21.79 14.15 21.79L15.37 21.79L15.37 22.29Z" fill="#688800" fill-opacity="1.000000" fill-rule="nonzero"/>
		<path id="Vector" d="M36.18 30.78L16.27 30.78C15.96 30.78 15.7 31.04 15.7 31.35C15.7 31.67 15.96 31.93 16.27 31.93L36.18 31.93C36.49 31.93 36.75 31.67 36.75 31.35C36.75 31.04 36.49 30.78 36.18 30.78Z" fill="#688800" fill-opacity="1.000000" fill-rule="nonzero"/>
		<path id="Vector" d="M12.63 30.78L10.3 30.78C9.99 30.78 9.73 31.04 9.73 31.35C9.73 31.67 9.99 31.93 10.3 31.93L12.63 31.93C12.95 31.93 13.2 31.67 13.2 31.35C13.2 31.04 12.95 30.78 12.63 30.78Z" fill="#688800" fill-opacity="1.000000" fill-rule="nonzero"/>
	</g>
</svg>
