<svg width="32.000000" height="32.000000" viewBox="0 0 32 32" fill="none" xmlns="http://www.w3.org/2000/svg" xmlns:xlink="http://www.w3.org/1999/xlink">
	<desc>
			Created with Pixso.
	</desc>
	<defs>
		<clipPath id="clip1_3001">
			<rect id="051-facebook" width="32.000000" height="32.000000" fill="white" fill-opacity="0"/>
		</clipPath>
	</defs>
	<rect id="051-facebook" width="32.000000" height="32.000000" fill="#FFFFFF" fill-opacity="0"/>
	<g clip-path="url(#clip1_3001)">
		<path id="Vector" d="M27.31 4.68C24.29 1.66 20.27 0 16 0C11.75 0 7.69 1.68 4.68 4.68C1.66 7.7 0 11.72 0 16C0 19.33 1.01 22.52 2.93 25.23C4.81 27.88 7.4 29.87 10.43 31C10.63 31.08 10.87 31.01 11.01 30.83C11.08 30.74 11.11 30.63 11.11 30.51L11.11 21.38C11.11 21.11 10.89 20.88 10.61 20.88L6.4 20.88L6.4 17.17L10.61 17.17C10.89 17.17 11.11 16.95 11.11 16.67L11.11 16C11.11 11.6 15.28 7.74 20.04 7.74L22.23 7.74L22.23 11.45L20.04 11.45C18.61 11.45 17.32 11.86 16.39 12.6C15.36 13.43 14.82 14.6 14.82 16L14.82 16.67C14.82 16.95 15.04 17.17 15.32 17.17L17.31 17.17C17.59 17.17 17.82 16.95 17.82 16.67C17.82 16.39 17.59 16.16 17.31 16.16L15.83 16.16L15.83 16C15.83 13.38 18.1 12.46 20.04 12.46L22.73 12.46C23.01 12.46 23.24 12.23 23.24 11.95L23.24 7.24C23.24 6.96 23.01 6.73 22.73 6.73L20.04 6.73C17.57 6.73 15.06 7.71 13.17 9.43C11.19 11.22 10.1 13.55 10.1 16L10.1 16.16L5.89 16.16C5.61 16.16 5.39 16.39 5.39 16.67L5.39 21.38C5.39 21.66 5.61 21.89 5.89 21.89L10.1 21.89L10.1 29.78C4.63 27.44 1.01 21.99 1.01 16C1.01 7.73 7.73 1.01 16 1.01C24.25 1.01 30.99 7.74 30.99 16C30.99 24.26 24.26 30.98 16 30.98C15.94 30.98 15.88 30.98 15.83 30.98L15.83 21.89L22.73 21.89C23.01 21.89 23.24 21.66 23.24 21.38L23.24 16.67C23.24 16.39 23.01 16.16 22.73 16.16L19.78 16.16C19.5 16.16 19.27 16.39 19.27 16.67C19.27 16.95 19.5 17.17 19.78 17.17L22.23 17.17L22.23 20.88L15.32 20.88C15.04 20.88 14.82 21.11 14.82 21.38L14.82 31.47C14.82 31.74 15.03 31.97 15.3 31.98C15.55 31.99 15.78 32 16 32C20.27 32 24.29 30.33 27.31 27.31C30.31 24.3 32 20.24 32 16C32 11.72 30.33 7.7 27.31 4.68Z" fill="#688800" fill-opacity="1.000000" fill-rule="nonzero"/>
	</g>
</svg>
