<svg width="32.000000" height="32.000000" viewBox="0 0 32 32" fill="none" xmlns="http://www.w3.org/2000/svg" xmlns:xlink="http://www.w3.org/1999/xlink">
	<desc>
			Created with Pixso.
	</desc>
	<defs>
		<clipPath id="clip1_3007">
			<rect id="051-instagram" width="32.000000" height="32.000000" fill="white" fill-opacity="0"/>
		</clipPath>
	</defs>
	<rect id="051-instagram" width="32.000000" height="32.000000" fill="#FFFFFF" fill-opacity="0"/>
	<g clip-path="url(#clip1_3007)">
		<path id="Vector" d="M27.31 4.68C24.29 1.66 20.27 0 16 0C11.72 0 7.7 1.66 4.68 4.68C1.66 7.7 0 11.72 0 16C0 20.27 1.66 24.29 4.68 27.31C7.7 30.33 11.72 32 16 32C20.27 32 24.29 30.33 27.31 27.31C30.33 24.29 32 20.27 32 16C32 11.72 30.33 7.7 27.31 4.68ZM16 30.98C7.73 30.98 1.01 24.26 1.01 16C1.01 7.73 7.73 1.01 16 1.01C24.26 1.01 30.98 7.73 30.98 16C30.98 24.26 24.26 30.98 16 30.98Z" fill="#688800" fill-opacity="1.000000" fill-rule="nonzero"/>
		<path id="Vector" d="M21.74 6.06L10.25 6.06C7.94 6.06 6.06 7.94 6.06 10.25L6.06 21.74C6.06 24.05 7.94 25.93 10.25 25.93L21.74 25.93C24.05 25.93 25.93 24.05 25.93 21.74L25.93 10.25C25.93 7.94 24.05 6.06 21.74 6.06ZM24.92 21.74C24.92 23.49 23.49 24.92 21.74 24.92L10.25 24.92C8.5 24.92 7.07 23.49 7.07 21.74L7.07 10.25C7.07 8.5 8.5 7.07 10.25 7.07L21.74 7.07C23.49 7.07 24.92 8.5 24.92 10.25L24.92 21.74L24.92 21.74Z" fill="#688800" fill-opacity="1.000000" fill-rule="nonzero"/>
		<path id="Vector" d="M21.21 15.7C21.06 13.04 18.9 10.9 16.24 10.78C13.17 10.64 10.64 13.17 10.78 16.24C10.9 18.9 13.04 21.06 15.7 21.21C16.82 21.27 17.87 20.98 18.75 20.43C19.02 20.26 19.07 19.88 18.84 19.65C18.84 19.65 18.84 19.64 18.83 19.64C18.67 19.48 18.41 19.45 18.21 19.57C17.55 19.98 16.78 20.21 15.95 20.21C13.61 20.18 11.72 18.22 11.79 15.88C11.85 13.52 13.86 11.64 16.26 11.79C18.34 11.92 20.02 13.57 20.19 15.64C20.26 16.48 20.08 17.28 19.72 17.96C19.61 18.16 19.64 18.4 19.8 18.56C19.8 18.56 19.81 18.56 19.81 18.56C20.04 18.8 20.44 18.75 20.6 18.45C21.04 17.64 21.26 16.7 21.21 15.7Z" fill="#688800" fill-opacity="1.000000" fill-rule="nonzero"/>
		<path id="Vector" d="M22.73 9.93C22.73 10.68 22.13 11.28 21.38 11.28C20.64 11.28 20.04 10.68 20.04 9.93C20.04 9.19 20.64 8.58 21.38 8.58C22.13 8.58 22.73 9.19 22.73 9.93Z" fill="#688800" fill-opacity="1.000000" fill-rule="evenodd"/>
	</g>
</svg>
