<svg width="32.000000" height="32.000000" viewBox="0 0 32 32" fill="none" xmlns="http://www.w3.org/2000/svg" xmlns:xlink="http://www.w3.org/1999/xlink">
	<desc>
			Created with Pixso.
	</desc>
	<defs>
		<clipPath id="clip1_3023">
			<rect id="phones 1" width="32.000000" height="32.000000" fill="white" fill-opacity="0"/>
		</clipPath>
	</defs>
	<rect id="phones 1" width="32.000000" height="32.000000" fill="#FFFFFF" fill-opacity="0"/>
	<g clip-path="url(#clip1_3023)">
		<path id="Vector" d="M27.3 4.68C24.28 1.66 20.27 0 15.99 0C11.72 0 7.7 1.66 4.68 4.68C1.66 7.7 0 11.72 0 16C0 18.94 0.8 21.81 2.32 24.31C2.46 24.53 2.74 24.6 2.97 24.46C3.19 24.33 3.26 24.04 3.12 23.82C1.69 21.47 0.93 18.76 0.93 16C0.93 11.97 2.5 8.19 5.34 5.34C8.19 2.5 11.97 0.93 15.99 0.93C20.02 0.93 23.8 2.5 26.64 5.34C29.49 8.19 31.05 11.97 31.05 16C31.05 20.02 29.49 23.8 26.64 26.65C23.8 29.49 20.02 31.06 15.99 31.06C11.37 31.06 7.08 28.98 4.2 25.36C4.04 25.16 3.74 25.13 3.54 25.29C3.34 25.45 3.3 25.74 3.46 25.95C6.52 29.79 11.09 32 15.99 32C20.27 32 24.28 30.33 27.3 27.31C30.33 24.29 31.99 20.27 31.99 16C31.99 11.72 30.33 7.7 27.3 4.68Z" fill="#688800" fill-opacity="1.000000" fill-rule="nonzero"/>
		<path id="Vector" d="M13.42 13.28L15.03 12.07C15.28 11.88 15.42 11.57 15.38 11.26C15.32 10.83 15.3 10.39 15.3 9.96C15.32 9.03 14.61 8.21 13.71 8.08L12.3 7.88C11.35 7.75 10.48 8 9.83 8.6C9.18 9.19 8.86 10.05 8.91 11.01C9 12.46 9.29 13.89 9.77 15.27C10.85 18.34 12.83 20.96 15.48 22.85C16.67 23.7 17.96 24.37 19.34 24.85C19.7 24.98 20.07 25.05 20.43 25.05C20.96 25.05 21.46 24.91 21.91 24.64C22.66 24.18 23.14 23.41 23.28 22.46L23.47 21.09C23.6 20.18 22.99 19.24 22.11 19C21.7 18.89 21.29 18.75 20.9 18.58C20.6 18.45 20.25 18.49 19.99 18.69L18.4 19.89C18.26 19.99 18.07 20 17.92 19.9C17.02 19.29 16.2 18.55 15.49 17.72C15.33 17.52 15.03 17.49 14.83 17.66C14.63 17.83 14.61 18.12 14.78 18.32C15.54 19.22 16.42 20.02 17.4 20.68C17.87 21 18.5 20.98 18.96 20.64L20.54 19.45C20.97 19.63 21.41 19.78 21.86 19.9C22.29 20.02 22.6 20.51 22.54 20.95L22.35 22.33C22.25 22.99 21.92 23.53 21.42 23.84C20.91 24.14 20.28 24.19 19.65 23.97C18.36 23.51 17.14 22.88 16.02 22.09C13.53 20.31 11.67 17.85 10.66 14.96C10.2 13.67 9.93 12.32 9.85 10.95C9.81 10.28 10.03 9.69 10.47 9.29C10.9 8.89 11.51 8.72 12.17 8.81L13.57 9.01C14.01 9.07 14.37 9.5 14.37 9.95C14.36 10.41 14.39 10.88 14.44 11.34L12.86 12.53C12.4 12.88 12.21 13.48 12.39 14.03C12.66 14.87 13.02 15.68 13.47 16.45C13.59 16.67 13.88 16.75 14.11 16.62C14.33 16.49 14.41 16.21 14.28 15.98C13.87 15.27 13.53 14.51 13.28 13.74C13.23 13.57 13.28 13.39 13.42 13.28Z" fill="#688800" fill-opacity="1.000000" fill-rule="nonzero"/>
	</g>
</svg>
