<svg width="40.000000" height="40.000000" viewBox="0 0 40 40" fill="none" xmlns="http://www.w3.org/2000/svg" xmlns:xlink="http://www.w3.org/1999/xlink">
	<desc>
			Created with Pixso.
	</desc>
	<defs>
		<clipPath id="clip1_3096">
			<rect id="shop" width="40.000000" height="40.000000" fill="white" fill-opacity="0"/>
		</clipPath>
	</defs>
	<rect id="shop" width="40.000000" height="40.000000" fill="#FFFFFF" fill-opacity="0"/>
	<g clip-path="url(#clip1_3096)">
		<path id="Vector" d="M38.16 35.07L37.49 35.07L37.49 17.68C39 16.71 40 15.03 40 13.11C40 13 39.97 12.9 39.92 12.82L35.27 4.68C34.94 4.11 34.33 3.75 33.67 3.75L6.32 3.75C5.66 3.75 5.05 4.11 4.72 4.68L0.07 12.82C0.02 12.9 0 13 0 13.11C0 15.03 1 16.71 2.5 17.68L2.5 35.07L1.83 35.07C1.51 35.07 1.25 35.33 1.25 35.65C1.25 35.98 1.51 36.24 1.83 36.24L38.16 36.24C38.48 36.24 38.74 35.98 38.74 35.65C38.74 35.33 38.48 35.07 38.16 35.07ZM1.21 13.69L3.09 13.69C3.41 13.69 3.67 13.43 3.67 13.11C3.67 12.78 3.41 12.52 3.09 12.52L1.59 12.52L5.74 5.26C5.86 5.05 6.08 4.92 6.32 4.92L33.67 4.92C33.91 4.92 34.13 5.05 34.25 5.26L38.4 12.52L36.9 12.52C36.58 12.52 36.32 12.78 36.32 13.11C36.32 13.43 36.58 13.69 36.9 13.69L38.78 13.69C38.5 15.77 36.71 17.37 34.56 17.37C32.4 17.37 30.62 15.77 30.33 13.69L34.4 13.69C34.72 13.69 34.99 13.43 34.99 13.11C34.99 12.78 34.72 12.52 34.4 12.52L5.59 12.52C5.27 12.52 5.01 12.78 5.01 13.11C5.01 13.43 5.27 13.69 5.59 13.69L9.66 13.69C9.37 15.77 7.59 17.37 5.43 17.37C3.28 17.37 1.49 15.77 1.21 13.69ZM29.08 13.69C28.79 15.77 27 17.37 24.85 17.37C22.69 17.37 20.91 15.77 20.62 13.69L29.08 13.69ZM19.37 13.69C19.08 15.77 17.3 17.37 15.14 17.37C12.99 17.37 11.2 15.77 10.91 13.69L19.37 13.69ZM33.19 35.07L26.84 35.07L26.84 33.11L33.19 33.11L33.19 35.07ZM33.19 31.93L26.84 31.93L26.84 21.21L33.19 21.21L33.19 31.93ZM36.32 35.07L34.36 35.07L34.36 20.62C34.36 20.3 34.1 20.04 33.77 20.04L26.26 20.04C25.93 20.04 25.67 20.3 25.67 20.62L25.67 35.07L3.67 35.07L3.67 18.25C4.22 18.44 4.82 18.55 5.43 18.55C7.55 18.55 9.39 17.33 10.29 15.56C11.19 17.33 13.02 18.55 15.14 18.55C17.26 18.55 19.1 17.33 20 15.56C20.89 17.33 22.73 18.55 24.85 18.55C26.97 18.55 28.8 17.33 29.7 15.56C30.6 17.33 32.44 18.55 34.56 18.55C35.17 18.55 35.77 18.44 36.32 18.25L36.32 35.07Z" fill="#688800" fill-opacity="1.000000" fill-rule="nonzero"/>
		<path id="Vector" d="M23.13 20.04L6.22 20.04C5.89 20.04 5.63 20.3 5.63 20.62L5.63 32.52C5.63 32.84 5.89 33.11 6.22 33.11L23.13 33.11C23.45 33.11 23.71 32.84 23.71 32.52L23.71 20.62C23.71 20.3 23.45 20.04 23.13 20.04ZM22.54 31.93L6.8 31.93L6.8 21.21L22.54 21.21L22.54 31.93Z" fill="#688800" fill-opacity="1.000000" fill-rule="nonzero"/>
	</g>
</svg>
