<svg width="32.000000" height="32.000000" viewBox="0 0 32 32" fill="none" xmlns="http://www.w3.org/2000/svg" xmlns:xlink="http://www.w3.org/1999/xlink">
	<desc>
			Created with Pixso.
	</desc>
	<defs>
		<clipPath id="clip1_2989">
			<rect id="051-telegram" width="32.000000" height="32.000000" fill="white" fill-opacity="0"/>
		</clipPath>
	</defs>
	<rect id="051-telegram" width="32.000000" height="32.000000" fill="#FFFFFF" fill-opacity="0"/>
	<g clip-path="url(#clip1_2989)">
		<path id="Vector" d="M27.31 4.68C24.29 1.66 20.27 0 16 0C11.72 0 7.7 1.66 4.68 4.68C1.66 7.7 0 11.72 0 16C0 20.27 1.66 24.29 4.68 27.31C7.7 30.33 11.72 32 16 32C20.27 32 24.29 30.33 27.31 27.31C30.33 24.29 32 20.27 32 16C32 11.72 30.33 7.7 27.31 4.68ZM16 30.98C7.73 30.98 1.01 24.26 1.01 16C1.01 7.73 7.73 1.01 16 1.01C24.26 1.01 30.98 7.73 30.98 16C30.98 24.26 24.26 30.98 16 30.98Z" fill="#688800" fill-opacity="1.000000" fill-rule="nonzero"/>
		<path id="Vector" d="M25.06 6.16C24.9 6.04 24.69 6.03 24.52 6.11L4.98 16.22C4.82 16.31 4.71 16.48 4.71 16.67C4.71 16.86 4.82 17.04 4.99 17.12L10.1 19.68L10.1 24.74C10.1 24.87 10.15 25 10.24 25.1C10.34 25.2 10.47 25.26 10.61 25.26C10.69 25.26 10.77 25.24 10.85 25.19L16.7 21.95L21.17 23.86C21.27 23.9 21.37 23.92 21.48 23.9C21.68 23.86 21.84 23.7 21.88 23.5L23.01 17.84C23.07 17.53 22.84 17.24 22.52 17.24C22.28 17.24 22.07 17.41 22.02 17.64L21.01 22.7L16.87 20.92C16.72 20.86 16.56 20.87 16.42 20.94L11.11 23.89L11.11 19.36C11.11 19.17 11 19 10.83 18.91L6.33 16.66L24.05 7.5L22.51 15.18C22.45 15.5 22.69 15.79 23.01 15.79C23.25 15.79 23.46 15.62 23.5 15.38L25.25 6.66C25.29 6.47 25.21 6.28 25.06 6.16Z" fill="#688800" fill-opacity="1.000000" fill-rule="nonzero"/>
		<path id="Vector" d="M21.78 10.29C21.62 10.09 21.34 10.04 21.12 10.18L12.36 15.56C12.21 15.66 12.12 15.82 12.12 16L12.12 21.38C12.12 21.62 12.28 21.82 12.51 21.88C12.55 21.89 12.59 21.89 12.63 21.89C12.81 21.89 12.99 21.78 13.08 21.61L15.06 17.64L21.74 10.96C21.92 10.78 21.94 10.49 21.78 10.29ZM14.29 16.98C14.25 17.02 14.22 17.07 14.2 17.12L13.13 19.24L13.13 16.28L17.98 13.29L14.29 16.98Z" fill="#688800" fill-opacity="1.000000" fill-rule="nonzero"/>
	</g>
</svg>
