<svg width="40.000000" height="40.000000" viewBox="0 0 40 40" fill="none" xmlns="http://www.w3.org/2000/svg" xmlns:xlink="http://www.w3.org/1999/xlink">
	<desc>
			Created with Pixso.
	</desc>
	<defs>
		<clipPath id="clip1_3117">
			<rect id="delivery-truck" width="40.000000" height="40.000000" fill="white" fill-opacity="0"/>
		</clipPath>
	</defs>
	<rect id="delivery-truck" width="40.000000" height="40.000000" fill="#FFFFFF" fill-opacity="0"/>
	<g clip-path="url(#clip1_3117)">
		<path id="Vector" d="M32.38 14.72L29.86 14.72L30.62 6.01C30.62 6 30.62 5.98 30.62 5.97C30.62 5.96 30.62 5.96 30.62 5.96C30.62 5.96 30.62 5.96 30.62 5.96C30.62 5.72 30.48 5.51 30.27 5.42C30.27 5.42 30.26 5.42 30.26 5.42C30.25 5.42 30.23 5.41 30.22 5.41C30.22 5.4 30.21 5.4 30.21 5.4C30.2 5.4 30.18 5.4 30.17 5.39C30.16 5.39 30.16 5.39 30.15 5.39C30.14 5.38 30.13 5.38 30.12 5.38C30.11 5.38 30.1 5.38 30.09 5.38C30.09 5.38 30.09 5.38 30.09 5.38C30.08 5.38 30.06 5.38 30.05 5.38C30.05 5.38 30.04 5.38 30.03 5.38L30.03 5.38C30.03 5.38 30.03 5.38 30.02 5.38L18.04 5.38C17.72 5.38 17.46 5.64 17.46 5.96C17.46 6.28 17.72 6.55 18.04 6.55L29.4 6.55L28.23 19.94C28.23 19.94 28.23 19.94 28.23 19.94L27.93 23.32L7.57 23.32L7.91 19.8L11.79 19.8C12.12 19.8 12.38 19.54 12.38 19.22C12.38 18.89 12.12 18.63 11.79 18.63L8.03 18.63L8.75 11.21L14.92 11.21C15.24 11.21 15.5 10.95 15.5 10.62C15.5 10.3 15.24 10.04 14.92 10.04L8.86 10.04L9.2 6.55L15.7 6.55C16.02 6.55 16.29 6.28 16.29 5.96C16.29 5.64 16.02 5.38 15.7 5.38L8.67 5.38C8.67 5.38 8.67 5.38 8.67 5.38C8.39 5.38 8.15 5.57 8.1 5.84C8.09 5.84 8.09 5.84 8.09 5.84C8.09 5.86 8.09 5.87 8.09 5.89C8.09 5.89 8.09 5.9 8.08 5.9C8.08 5.9 8.08 5.9 8.08 5.9L7.68 10.04L0.58 10.04C0.26 10.04 0 10.3 0 10.62C0 10.95 0.26 11.21 0.58 11.21L7.57 11.21L6.85 18.63L4.76 18.63C4.44 18.63 4.17 18.89 4.17 19.22C4.17 19.54 4.44 19.8 4.76 19.8L6.74 19.8L6.35 23.84C6.35 23.84 6.35 23.84 6.35 23.84L5.74 30.09C5.74 30.09 5.74 30.09 5.74 30.09L5.74 30.1C5.74 30.11 5.74 30.11 5.74 30.12C5.74 30.13 5.74 30.14 5.74 30.15C5.74 30.15 5.74 30.15 5.74 30.16C5.74 30.17 5.74 30.18 5.74 30.2C5.74 30.2 5.74 30.21 5.74 30.21C5.74 30.23 5.74 30.24 5.75 30.26C5.75 30.26 5.75 30.27 5.75 30.27C5.75 30.28 5.75 30.29 5.76 30.31C5.76 30.31 5.76 30.32 5.76 30.33C5.76 30.33 5.77 30.33 5.77 30.33C5.79 30.42 5.84 30.5 5.91 30.56C5.91 30.57 5.91 30.57 5.91 30.57C5.91 30.57 5.92 30.58 5.93 30.59C5.97 30.62 6.01 30.65 6.06 30.68C6.07 30.68 6.08 30.69 6.1 30.69C6.1 30.7 6.1 30.7 6.11 30.7C6.12 30.7 6.14 30.71 6.15 30.71C6.15 30.71 6.15 30.71 6.15 30.71C6.17 30.72 6.19 30.72 6.21 30.73C6.21 30.73 6.21 30.73 6.21 30.73C6.23 30.73 6.25 30.73 6.27 30.74C6.27 30.74 6.27 30.74 6.27 30.74C6.29 30.74 6.31 30.74 6.32 30.74C6.32 30.74 6.32 30.74 6.32 30.74L8.93 30.74C9.22 32.92 11.09 34.61 13.35 34.61C15.62 34.61 17.49 32.92 17.78 30.74L27.17 30.74C27.46 32.92 29.34 34.61 31.6 34.61C33.86 34.61 35.73 32.92 36.02 30.74L38.63 30.74C38.63 30.74 38.63 30.74 38.63 30.74C38.65 30.74 38.67 30.74 38.69 30.74C38.69 30.74 38.69 30.74 38.7 30.74C38.71 30.73 38.73 30.73 38.74 30.73C38.75 30.73 38.75 30.73 38.76 30.72C38.77 30.72 38.78 30.72 38.79 30.72C38.8 30.71 38.81 30.71 38.82 30.71C38.83 30.7 38.84 30.7 38.85 30.7C38.85 30.69 38.86 30.69 38.87 30.69C38.88 30.68 38.89 30.68 38.9 30.67C38.9 30.67 38.91 30.67 38.92 30.66C38.93 30.66 38.93 30.65 38.94 30.65C38.95 30.64 38.96 30.64 38.96 30.63C38.97 30.63 38.98 30.62 38.99 30.62C38.99 30.61 39 30.61 39.01 30.6C39.01 30.59 39.02 30.59 39.03 30.58C39.04 30.57 39.04 30.57 39.05 30.56C39.05 30.56 39.06 30.55 39.07 30.54C39.07 30.53 39.08 30.53 39.08 30.52C39.09 30.51 39.1 30.5 39.11 30.49C39.11 30.49 39.11 30.48 39.11 30.48C39.12 30.47 39.13 30.45 39.14 30.44C39.14 30.43 39.14 30.43 39.14 30.43C39.15 30.42 39.16 30.4 39.17 30.38C39.17 30.38 39.17 30.37 39.17 30.37C39.18 30.36 39.18 30.34 39.19 30.33C39.19 30.32 39.19 30.31 39.19 30.31C39.2 30.3 39.2 30.29 39.2 30.28C39.2 30.27 39.2 30.26 39.21 30.25C39.21 30.24 39.21 30.23 39.21 30.23C39.23 30.03 39.69 26.35 39.9 23.97C39.9 23.96 39.9 23.96 39.9 23.96C39.96 23.27 40 22.69 40 22.34C40 18.14 36.58 14.72 32.38 14.72ZM29.76 15.9L32.15 15.9L31.85 19.41L29.45 19.41L29.76 15.9ZM13.35 33.44C11.54 33.44 10.07 31.97 10.07 30.15C10.07 28.34 11.54 26.86 13.35 26.86C15.17 26.86 16.64 28.34 16.64 30.15C16.64 31.97 15.17 33.44 13.35 33.44ZM31.6 33.44C29.78 33.44 28.31 31.97 28.31 30.15C28.31 28.34 29.78 26.86 31.6 26.86C33.41 26.86 34.89 28.34 34.89 30.15C34.89 31.97 33.41 33.44 31.6 33.44ZM38.11 29.57L36.02 29.57C35.73 27.38 33.86 25.69 31.6 25.69C29.34 25.69 27.46 27.38 27.18 29.57L17.78 29.57C17.49 27.38 15.62 25.69 13.35 25.69C11.09 25.69 9.22 27.38 8.93 29.57L6.97 29.57L7.46 24.49L28.47 24.49L28.47 24.49C28.47 24.49 28.47 24.49 28.47 24.49C28.49 24.49 28.51 24.49 28.53 24.49C28.53 24.49 28.54 24.48 28.54 24.48C28.56 24.48 28.57 24.48 28.59 24.48C28.59 24.48 28.6 24.47 28.61 24.47C28.62 24.47 28.63 24.47 28.64 24.46C28.65 24.46 28.66 24.46 28.66 24.46C28.67 24.45 28.68 24.45 28.69 24.45C28.7 24.44 28.71 24.44 28.72 24.43C28.73 24.43 28.73 24.43 28.74 24.42C28.75 24.42 28.76 24.41 28.77 24.41C28.77 24.4 28.78 24.4 28.79 24.39C28.8 24.39 28.81 24.38 28.81 24.38C28.82 24.37 28.83 24.37 28.84 24.36C28.84 24.36 28.85 24.35 28.86 24.35C28.86 24.34 28.87 24.33 28.88 24.33C28.88 24.32 28.89 24.31 28.89 24.31C28.9 24.3 28.91 24.29 28.91 24.29C28.92 24.28 28.93 24.27 28.93 24.27C28.94 24.26 28.94 24.25 28.95 24.24C28.95 24.24 28.96 24.23 28.96 24.22C28.97 24.21 28.97 24.21 28.98 24.2C28.98 24.19 28.99 24.18 28.99 24.17C29 24.17 29 24.16 29 24.15C29.01 24.14 29.01 24.13 29.01 24.12C29.02 24.11 29.02 24.11 29.02 24.1C29.03 24.09 29.03 24.08 29.03 24.07C29.04 24.06 29.04 24.05 29.04 24.04C29.04 24.03 29.04 24.02 29.05 24.02C29.05 24.01 29.05 24 29.05 23.99C29.05 23.98 29.05 23.97 29.06 23.96C29.06 23.96 29.06 23.96 29.06 23.95L29.35 20.58L32.38 20.58C34.17 20.58 34.98 21.51 35.84 22.5C36.55 23.31 37.34 24.22 38.68 24.44C38.51 26.24 38.23 28.55 38.11 29.57ZM38.78 23.26C37.91 23.09 37.37 22.47 36.72 21.73C35.91 20.8 34.92 19.66 33.02 19.45L33.32 15.97C36.43 16.43 38.82 19.11 38.82 22.34C38.82 22.56 38.81 22.88 38.78 23.26Z" fill="#688800" fill-opacity="1.000000" fill-rule="nonzero"/>
		<path id="Vector" d="M13.36 28C12.17 28 11.21 28.97 11.21 30.15C11.21 31.34 12.17 32.3 13.36 32.3C14.54 32.3 15.5 31.34 15.5 30.15C15.5 28.97 14.54 28 13.36 28ZM13.36 31.13C12.82 31.13 12.38 30.69 12.38 30.15C12.38 29.61 12.82 29.18 13.36 29.18C13.89 29.18 14.33 29.61 14.33 30.15C14.33 30.69 13.89 31.13 13.36 31.13Z" fill="#688800" fill-opacity="1.000000" fill-rule="nonzero"/>
		<path id="Vector" d="M31.6 28C30.41 28 29.45 28.97 29.45 30.15C29.45 31.34 30.41 32.3 31.6 32.3C32.78 32.3 33.75 31.34 33.75 30.15C33.75 28.97 32.78 28 31.6 28ZM31.6 31.13C31.06 31.13 30.62 30.69 30.62 30.15C30.62 29.61 31.06 29.18 31.6 29.18C32.14 29.18 32.57 29.61 32.57 30.15C32.57 30.69 32.14 31.13 31.6 31.13Z" fill="#688800" fill-opacity="1.000000" fill-rule="nonzero"/>
		<path id="Vector" d="M5.54 14.72L2.68 14.72C2.35 14.72 2.09 14.99 2.09 15.31C2.09 15.63 2.35 15.89 2.68 15.89L5.54 15.89C5.87 15.89 6.13 15.63 6.13 15.31C6.13 14.99 5.87 14.72 5.54 14.72Z" fill="#688800" fill-opacity="1.000000" fill-rule="nonzero"/>
	</g>
</svg>
