<svg width="32.000000" height="32.000000" viewBox="0 0 32 32" fill="none" xmlns="http://www.w3.org/2000/svg" xmlns:xlink="http://www.w3.org/1999/xlink">
	<desc>
			Created with Pixso.
	</desc>
	<defs>
		<clipPath id="clip1_2970">
			<rect id="051-viber" width="32.000000" height="32.000000" fill="white" fill-opacity="0"/>
		</clipPath>
	</defs>
	<rect id="051-viber" width="32.000000" height="32.000000" fill="#FFFFFF" fill-opacity="0"/>
	<g clip-path="url(#clip1_2970)">
		<path id="Vector" d="M27.31 4.68C24.29 1.66 20.27 0 16 0C11.72 0 7.7 1.66 4.68 4.68C1.66 7.7 0 11.72 0 16C0 20.27 1.66 24.29 4.68 27.31C7.7 30.33 11.72 32 16 32C20.27 32 24.29 30.33 27.31 27.31C30.33 24.29 32 20.27 32 16C32 11.72 30.33 7.7 27.31 4.68ZM16 30.98C7.73 30.98 1.01 24.26 1.01 16C1.01 7.73 7.73 1.01 16 1.01C24.26 1.01 30.98 7.73 30.98 16C30.98 24.26 24.26 30.98 16 30.98Z" fill="#688800" fill-opacity="1.000000" fill-rule="nonzero"/>
		<path id="Vector" d="M25.45 22.66L24.9 19.78C24.86 19.56 24.68 19.38 24.45 19.34L20.15 18.51C19.96 18.47 19.77 18.53 19.63 18.66L17.87 20.37C14.89 19.08 13.25 17.48 11.8 14.47L13.56 12.76C13.69 12.63 13.75 12.44 13.71 12.26L12.85 8.08C12.81 7.86 12.63 7.69 12.4 7.65L9.43 7.12C9.36 7.1 9.28 7.11 9.2 7.12C8.43 7.29 7.72 7.67 7.16 8.22C6.18 9.16 5.81 10.55 6.08 12.22C6.2 12.98 6.39 13.76 6.63 14.56C6.71 14.85 7.03 15.02 7.33 14.93C7.63 14.85 7.81 14.54 7.72 14.25C7.5 13.5 7.32 12.76 7.21 12.04C6.99 10.72 7.25 9.7 7.96 9C8.35 8.63 8.82 8.36 9.35 8.23L11.81 8.67L12.53 12.19L10.71 13.96C10.54 14.12 10.5 14.36 10.59 14.57C12.25 18.18 14.2 20.07 17.77 21.54C17.99 21.63 18.24 21.58 18.4 21.42L20.22 19.65L23.85 20.35L24.3 22.74C24.16 23.25 23.89 23.71 23.51 24.08C22.79 24.78 21.73 25.03 20.37 24.82C17.64 24.4 13.86 23.12 11.42 20.76L11.39 20.73C10.27 19.63 9.27 18.13 8.5 16.37C8.38 16.09 8.04 15.96 7.75 16.08C7.46 16.2 7.33 16.52 7.45 16.8C8.27 18.69 9.36 20.32 10.58 21.51L10.62 21.54C13.25 24.09 17.29 25.47 20.19 25.91C20.56 25.97 20.91 26 21.24 26C22.5 26 23.54 25.61 24.31 24.87C24.88 24.32 25.27 23.63 25.44 22.88C25.46 22.81 25.46 22.73 25.45 22.66Z" fill="#688800" fill-opacity="1.000000" fill-rule="nonzero"/>
		<path id="Vector" d="M17.52 10.72C17.2 10.72 16.95 10.97 16.95 11.27C16.95 11.58 17.2 11.83 17.52 11.83C18.88 11.83 19.99 12.9 19.99 14.22C19.99 14.53 20.25 14.78 20.56 14.78C20.87 14.78 21.13 14.53 21.13 14.22C21.13 12.29 19.51 10.72 17.52 10.72Z" fill="#688800" fill-opacity="1.000000" fill-rule="nonzero"/>
		<path id="Vector" d="M17.52 8.36C17.29 8.36 17.07 8.37 16.84 8.39C16.53 8.43 16.31 8.7 16.34 9C16.37 9.31 16.66 9.53 16.97 9.49C17.15 9.47 17.33 9.46 17.52 9.46C20.22 9.46 22.42 11.6 22.42 14.22C22.42 14.4 22.41 14.58 22.39 14.75C22.36 15.06 22.58 15.33 22.9 15.37C23.2 15.4 23.49 15.18 23.52 14.88C23.55 14.66 23.56 14.44 23.56 14.22C23.56 10.99 20.85 8.36 17.52 8.36Z" fill="#688800" fill-opacity="1.000000" fill-rule="nonzero"/>
		<path id="Vector" d="M17.52 6C17.3 6 17.08 6 16.86 6.02C16.55 6.04 16.31 6.31 16.34 6.61C16.36 6.92 16.63 7.15 16.95 7.12C17.14 7.11 17.33 7.1 17.52 7.1C21.56 7.1 24.85 10.3 24.85 14.22C24.85 14.78 24.79 15.33 24.66 15.87C24.59 16.16 24.77 16.46 25.07 16.53C25.38 16.61 25.7 16.42 25.77 16.12C25.92 15.5 26 14.87 26 14.22C26 9.69 22.19 6 17.52 6Z" fill="#688800" fill-opacity="1.000000" fill-rule="nonzero"/>
	</g>
</svg>
