<svg width="24.000000" height="24.000000" viewBox="0 0 24 24" fill="none" xmlns="http://www.w3.org/2000/svg" xmlns:xlink="http://www.w3.org/1999/xlink">
	<desc>
			Created with Pixso.
	</desc>
	<defs>
		<clipPath id="clip1_3033">
			<rect id="051-instagram" width="24.000000" height="24.000000" fill="white" fill-opacity="0"/>
		</clipPath>
	</defs>
	<rect id="051-instagram" width="24.000000" height="24.000000" fill="#FFFFFF" fill-opacity="0"/>
	<g clip-path="url(#clip1_3033)">
		<path id="Vector" d="M20.48 3.51C18.21 1.24 15.2 0 12 0C8.79 0 5.78 1.24 3.51 3.51C1.24 5.78 0 8.79 0 12C0 15.2 1.24 18.21 3.51 20.48C5.78 22.75 8.79 24 12 24C15.2 24 18.21 22.75 20.48 20.48C22.75 18.21 24 15.2 24 12C24 8.79 22.75 5.78 20.48 3.51ZM12 23.24C5.8 23.24 0.75 18.19 0.75 12C0.75 5.8 5.8 0.75 12 0.75C18.19 0.75 23.24 5.8 23.24 12C23.24 18.19 18.19 23.24 12 23.24Z" fill="#FFFFFF" fill-opacity="1.000000" fill-rule="nonzero"/>
		<path id="Vector" d="M16.3 4.54L7.69 4.54C5.95 4.54 4.54 5.95 4.54 7.69L4.54 16.3C4.54 18.04 5.95 19.45 7.69 19.45L16.3 19.45C18.04 19.45 19.45 18.04 19.45 16.3L19.45 7.69C19.45 5.95 18.04 4.54 16.3 4.54ZM18.69 16.3C18.69 17.62 17.62 18.69 16.3 18.69L7.69 18.69C6.37 18.69 5.3 17.62 5.3 16.3L5.3 7.69C5.3 6.37 6.37 5.3 7.69 5.3L16.3 5.3C17.62 5.3 18.69 6.37 18.69 7.69L18.69 16.3L18.69 16.3Z" fill="#FFFFFF" fill-opacity="1.000000" fill-rule="nonzero"/>
		<path id="Vector" d="M15.9 11.77C15.79 9.78 14.17 8.17 12.18 8.08C9.87 7.98 7.98 9.88 8.08 12.18C8.17 14.17 9.78 15.79 11.77 15.91C12.62 15.95 13.4 15.73 14.06 15.32C14.27 15.19 14.3 14.91 14.13 14.74C14.13 14.73 14.13 14.73 14.12 14.73C14 14.61 13.81 14.59 13.66 14.68C13.16 14.99 12.58 15.16 11.96 15.15C10.21 15.13 8.79 13.66 8.84 11.91C8.89 10.14 10.4 8.73 12.2 8.84C13.75 8.94 15.01 10.18 15.14 11.73C15.19 12.36 15.06 12.96 14.79 13.47C14.71 13.62 14.73 13.8 14.85 13.92C14.85 13.92 14.85 13.92 14.85 13.92C15.03 14.1 15.33 14.06 15.45 13.84C15.78 13.23 15.95 12.52 15.9 11.77Z" fill="#FFFFFF" fill-opacity="1.000000" fill-rule="nonzero"/>
		<path id="Vector" d="M17.05 7.45C17.05 8.01 16.6 8.46 16.04 8.46C15.48 8.46 15.03 8.01 15.03 7.45C15.03 6.89 15.48 6.44 16.04 6.44C16.6 6.44 17.05 6.89 17.05 7.45Z" fill="#FFFFFF" fill-opacity="1.000000" fill-rule="evenodd"/>
	</g>
</svg>
