<svg width="24.000000" height="24.000000" viewBox="0 0 24 24" fill="none" xmlns="http://www.w3.org/2000/svg" xmlns:xlink="http://www.w3.org/1999/xlink">
	<desc>
			Created with Pixso.
	</desc>
	<defs>
		<clipPath id="clip1_3060">
			<rect id="051-viber" width="24.000000" height="24.000000" fill="white" fill-opacity="0"/>
		</clipPath>
	</defs>
	<rect id="051-viber" width="24.000000" height="24.000000" fill="#FFFFFF" fill-opacity="0"/>
	<g clip-path="url(#clip1_3060)">
		<path id="Vector" d="M20.48 3.51C18.21 1.24 15.2 0 12 0C8.79 0 5.78 1.24 3.51 3.51C1.24 5.78 0 8.79 0 12C0 15.2 1.24 18.21 3.51 20.48C5.78 22.75 8.79 24 12 24C15.2 24 18.21 22.75 20.48 20.48C22.75 18.21 24 15.2 24 12C24 8.79 22.75 5.78 20.48 3.51ZM12 23.24C5.8 23.24 0.75 18.19 0.75 12C0.75 5.8 5.8 0.75 12 0.75C18.19 0.75 23.24 5.8 23.24 12C23.24 18.19 18.19 23.24 12 23.24Z" fill="#FFFFFF" fill-opacity="1.000000" fill-rule="nonzero"/>
		<path id="Vector" d="M19.08 16.99L18.67 14.84C18.64 14.67 18.51 14.54 18.34 14.5L15.11 13.88C14.97 13.85 14.83 13.89 14.72 13.99L13.4 15.28C11.17 14.31 9.93 13.11 8.85 10.85L10.17 9.57C10.27 9.47 10.31 9.33 10.28 9.19L9.64 6.06C9.6 5.9 9.47 5.77 9.3 5.74L7.07 5.34C7.02 5.33 6.96 5.33 6.9 5.34C6.32 5.47 5.79 5.75 5.37 6.16C4.64 6.87 4.36 7.91 4.56 9.16C4.65 9.73 4.79 10.32 4.97 10.92C5.03 11.14 5.27 11.26 5.5 11.2C5.72 11.13 5.86 10.9 5.79 10.68C5.62 10.12 5.49 9.57 5.4 9.03C5.24 8.04 5.43 7.27 5.97 6.75C6.26 6.47 6.62 6.27 7.01 6.17L8.86 6.5L9.4 9.14L8.03 10.47C7.91 10.59 7.87 10.77 7.94 10.93C9.19 13.63 10.65 15.05 13.33 16.15C13.49 16.22 13.67 16.18 13.8 16.06L15.17 14.74L17.88 15.26L18.23 17.06C18.12 17.44 17.92 17.78 17.63 18.06C17.09 18.58 16.3 18.77 15.28 18.61C13.23 18.3 10.39 17.34 8.57 15.57L8.54 15.54C7.7 14.72 6.95 13.59 6.37 12.28C6.28 12.06 6.03 11.97 5.81 12.06C5.59 12.15 5.49 12.39 5.59 12.6C6.2 14.02 7.02 15.24 7.94 16.13L7.96 16.16C9.94 18.06 12.97 19.1 15.14 19.43C15.42 19.47 15.68 19.5 15.93 19.5C16.87 19.5 17.66 19.21 18.23 18.65C18.66 18.24 18.95 17.72 19.08 17.16C19.09 17.1 19.09 17.05 19.08 16.99Z" fill="#FFFFFF" fill-opacity="1.000000" fill-rule="nonzero"/>
		<path id="Vector" d="M13.14 8.04C12.9 8.04 12.71 8.22 12.71 8.45C12.71 8.68 12.9 8.87 13.14 8.87C14.16 8.87 14.99 9.67 14.99 10.67C14.99 10.89 15.18 11.08 15.42 11.08C15.65 11.08 15.84 10.89 15.84 10.67C15.84 9.22 14.63 8.04 13.14 8.04Z" fill="#FFFFFF" fill-opacity="1.000000" fill-rule="nonzero"/>
		<path id="Vector" d="M13.14 6.27C12.97 6.27 12.8 6.28 12.63 6.29C12.4 6.32 12.23 6.52 12.25 6.75C12.28 6.98 12.49 7.14 12.73 7.12C12.86 7.1 13 7.1 13.14 7.1C15.16 7.1 16.81 8.7 16.81 10.67C16.81 10.8 16.81 10.93 16.79 11.06C16.77 11.29 16.94 11.5 17.17 11.52C17.4 11.55 17.62 11.38 17.64 11.16C17.66 10.99 17.67 10.83 17.67 10.67C17.67 8.24 15.64 6.27 13.14 6.27Z" fill="#FFFFFF" fill-opacity="1.000000" fill-rule="nonzero"/>
		<path id="Vector" d="M13.14 4.5C12.97 4.5 12.81 4.5 12.65 4.51C12.41 4.53 12.23 4.73 12.25 4.96C12.27 5.19 12.48 5.36 12.71 5.34C12.85 5.33 12.99 5.33 13.14 5.33C16.17 5.33 18.64 7.72 18.64 10.67C18.64 11.08 18.59 11.5 18.49 11.9C18.44 12.12 18.58 12.34 18.8 12.4C19.03 12.46 19.27 12.31 19.32 12.09C19.44 11.63 19.5 11.15 19.5 10.67C19.5 7.26 16.64 4.5 13.14 4.5Z" fill="#FFFFFF" fill-opacity="1.000000" fill-rule="nonzero"/>
	</g>
</svg>
