<svg width="24.000000" height="24.000000" viewBox="0 0 24 24" fill="none" xmlns="http://www.w3.org/2000/svg" xmlns:xlink="http://www.w3.org/1999/xlink">
	<desc>
			Created with Pixso.
	</desc>
	<defs>
		<clipPath id="clip1_3050">
			<rect id="051-telegram" width="24.000000" height="24.000000" fill="white" fill-opacity="0"/>
		</clipPath>
	</defs>
	<rect id="051-telegram" width="24.000000" height="24.000000" fill="#FFFFFF" fill-opacity="0"/>
	<g clip-path="url(#clip1_3050)">
		<path id="Vector" d="M20.48 3.51C18.21 1.24 15.2 0 12 0C8.79 0 5.78 1.24 3.51 3.51C1.24 5.78 0 8.79 0 12C0 15.2 1.24 18.21 3.51 20.48C5.78 22.75 8.79 24 12 24C15.2 24 18.21 22.75 20.48 20.48C22.75 18.21 24 15.2 24 12C24 8.79 22.75 5.78 20.48 3.51ZM12 23.24C5.8 23.24 0.75 18.19 0.75 12C0.75 5.8 5.8 0.75 12 0.75C18.19 0.75 23.24 5.8 23.24 12C23.24 18.19 18.19 23.24 12 23.24Z" fill="#FFFFFF" fill-opacity="1.000000" fill-rule="nonzero"/>
		<path id="Vector" d="M18.79 4.62C18.68 4.53 18.52 4.52 18.39 4.58L3.74 12.16C3.61 12.23 3.53 12.36 3.53 12.5C3.53 12.65 3.61 12.78 3.74 12.84L7.57 14.76L7.57 18.55C7.57 18.65 7.61 18.75 7.68 18.82C7.75 18.9 7.85 18.94 7.95 18.94C8.02 18.94 8.08 18.93 8.14 18.89L12.52 16.46L15.88 17.9C15.95 17.93 16.03 17.94 16.1 17.93C16.26 17.9 16.38 17.78 16.41 17.63L17.26 13.38C17.3 13.15 17.13 12.93 16.89 12.93C16.71 12.93 16.55 13.06 16.51 13.23L15.76 17.02L12.65 15.69C12.54 15.64 12.42 15.65 12.32 15.71L8.33 17.92L8.33 14.52C8.33 14.38 8.25 14.25 8.12 14.18L4.75 12.49L18.04 5.62L16.88 11.39C16.84 11.62 17.02 11.84 17.26 11.84C17.44 11.84 17.59 11.71 17.63 11.54L18.94 5C18.96 4.85 18.91 4.71 18.79 4.62Z" fill="#FFFFFF" fill-opacity="1.000000" fill-rule="nonzero"/>
		<path id="Vector" d="M16.33 7.72C16.22 7.57 16 7.53 15.84 7.63L9.27 11.67C9.16 11.74 9.09 11.86 9.09 11.99L9.09 16.04C9.09 16.21 9.21 16.37 9.38 16.41C9.41 16.41 9.44 16.42 9.47 16.42C9.61 16.42 9.74 16.34 9.81 16.21L11.3 13.23L16.31 8.22C16.44 8.08 16.45 7.87 16.33 7.72ZM10.72 12.74C10.69 12.77 10.66 12.8 10.65 12.84L9.85 14.43L9.85 12.21L13.49 9.97L10.72 12.74Z" fill="#FFFFFF" fill-opacity="1.000000" fill-rule="nonzero"/>
	</g>
</svg>
