<svg width="24.000000" height="24.000000" viewBox="0 0 24 24" fill="none" xmlns="http://www.w3.org/2000/svg" xmlns:xlink="http://www.w3.org/1999/xlink">
	<desc>
			Created with Pixso.
	</desc>
	<defs>
		<clipPath id="clip1_3046">
			<rect id="051-facebook" width="24.000000" height="24.000000" fill="white" fill-opacity="0"/>
		</clipPath>
	</defs>
	<rect id="051-facebook" width="24.000000" height="24.000000" fill="#FFFFFF" fill-opacity="0"/>
	<g clip-path="url(#clip1_3046)">
		<path id="Vector" d="M20.48 3.51C18.21 1.24 15.2 0 12 0C8.81 0 5.76 1.26 3.51 3.51C1.24 5.78 0 8.79 0 12C0 14.49 0.76 16.89 2.2 18.92C3.6 20.91 5.55 22.4 7.82 23.25C7.97 23.31 8.15 23.26 8.26 23.12C8.31 23.05 8.33 22.97 8.33 22.88L8.33 16.04C8.33 15.83 8.16 15.66 7.95 15.66L4.8 15.66L4.8 12.88L7.95 12.88C8.16 12.88 8.33 12.71 8.33 12.5L8.33 12C8.33 8.7 11.46 5.81 15.03 5.81L16.67 5.81L16.67 8.58L15.03 8.58C13.96 8.58 12.99 8.89 12.29 9.45C11.52 10.07 11.11 10.95 11.11 12L11.11 12.5C11.11 12.71 11.28 12.88 11.49 12.88L12.98 12.88C13.19 12.88 13.36 12.71 13.36 12.5C13.36 12.29 13.19 12.12 12.98 12.12L11.87 12.12L11.87 12C11.87 10.04 13.57 9.34 15.03 9.34L17.05 9.34C17.26 9.34 17.43 9.17 17.43 8.96L17.43 5.43C17.43 5.22 17.26 5.05 17.05 5.05L15.03 5.05C13.18 5.05 11.3 5.78 9.88 7.07C8.39 8.41 7.57 10.16 7.57 12L7.57 12.12L4.42 12.12C4.21 12.12 4.04 12.29 4.04 12.5L4.04 16.04C4.04 16.25 4.21 16.42 4.42 16.42L7.57 16.42L7.57 22.33C3.47 20.58 0.75 16.49 0.75 12C0.75 5.8 5.8 0.75 12 0.75C18.19 0.75 23.24 5.8 23.24 12C23.24 18.19 18.2 23.24 12 23.24C11.95 23.24 11.91 23.24 11.87 23.24L11.87 16.42L17.05 16.42C17.26 16.42 17.43 16.25 17.43 16.04L17.43 12.5C17.43 12.29 17.26 12.12 17.05 12.12L14.83 12.12C14.62 12.12 14.45 12.29 14.45 12.5C14.45 12.71 14.62 12.88 14.83 12.88L16.67 12.88L16.67 15.66L11.49 15.66C11.28 15.66 11.11 15.83 11.11 16.04L11.11 23.6C11.11 23.81 11.27 23.97 11.47 23.98C11.66 23.99 11.83 24 12 24C15.2 24 18.21 22.75 20.48 20.48C22.73 18.23 24 15.18 24 12C24 8.79 22.75 5.78 20.48 3.51Z" fill="#FFFFFF" fill-opacity="1.000000" fill-rule="nonzero"/>
	</g>
</svg>
